<svg fill="none" height="32" viewBox="2.5 2.5 27 27" width="32" xmlns="http://www.w3.org/2000/svg"><g transform="translate(5.431497058592035 6) scale(0.7254227673210101) translate(-1.4873 -2.21497)"><path d="M12.6446 26.9893C11.4009 26.9893 10.3927 28.241 10.3927 29.7851H20.8379C20.8379 28.241 19.8297 26.9893 18.586 26.9893H12.6446Z" fill="#FFAB00"></path><path d="M30.6248 12.4687C28.4028 16.0382 25.067 20.9503 23.5775 22.2107C22.0879 23.4711 19.8789 25.7431 14.7585 25.7431C11.1714 25.7431 8.08576 23.4392 6.71623 20.1351C6.71626 20.139 6.71631 20.1429 6.71634 20.1467C6.52228 19.6646 6.0505 19.324 5.4989 19.324C4.77415 19.324 4.18657 19.9116 4.18657 20.6363C4.18659 20.8064 4.21897 20.9621 4.27789 21.1009C4.59312 21.8436 5.43178 21.8752 5.43178 24.1918C5.43178 23.9223 5.43178 24.529 5.43178 24.1918C3.25334 24.1918 1.48735 22.4257 1.4873 20.2473C1.4873 18.0688 3.25331 16.3028 5.43178 16.3028H5.96076V16.3021H12.2266C12.6947 16.3021 13.144 16.5003 13.4365 16.8658C13.9489 17.5062 14.3416 18.1023 14.631 18.5943C14.8992 19.05 15.7023 19.0544 15.9678 18.5971C16.2477 18.1149 16.6195 17.5323 17.0908 16.906C17.3835 16.517 17.8486 16.3021 18.3354 16.3021H20.6652C24.0699 16.3021 25.9362 14.6697 26.8891 13.4932C27.3822 12.8844 28.0825 12.4687 28.866 12.4687H30.6248Z" fill="#FFDB96"></path><path d="M15.327 18.1629C15.327 13.7692 11.8229 10.2055 7.49414 10.189C11.8229 10.1726 15.3271 6.6087 15.3271 2.21497C15.3271 2.21497 15.3271 2.21496 15.3271 2.21497C15.3271 6.61887 18.8476 10.1889 23.1902 10.1889C18.8476 10.1889 15.3271 13.759 15.327 18.1629Z" fill="#FFAB00"></path></g></svg>
